<mxfile host="app.diagrams.net" modified="2023-10-25T18:04:10.053Z" agent="Mozilla/5.0 (Windows NT 10.0; Win64; x64) AppleWebKit/537.36 (KHTML, like Gecko) Chrome/118.0.0.0 Safari/537.36 Edg/118.0.2088.61" etag="-zRx_Q58np-yMrgQkYl9" version="22.0.8" type="google">
  <diagram name="Page-1" id="47-gqoCu0vr_7fC-A2bo">
    <mxGraphModel dx="474" dy="1011" grid="0" gridSize="10" guides="1" tooltips="1" connect="1" arrows="1" fold="1" page="0" pageScale="1" pageWidth="850" pageHeight="1100" math="0" shadow="0">
      <root>
        <mxCell id="0" />
        <mxCell id="1" parent="0" />
        <mxCell id="Vt0k-fAMAYBKt453Sh5H-3" value="" style="edgeStyle=none;curved=1;rounded=0;orthogonalLoop=1;jettySize=auto;html=1;fontSize=12;startSize=8;endSize=8;" edge="1" parent="1" source="Vt0k-fAMAYBKt453Sh5H-1" target="Vt0k-fAMAYBKt453Sh5H-2">
          <mxGeometry relative="1" as="geometry" />
        </mxCell>
        <mxCell id="Vt0k-fAMAYBKt453Sh5H-1" value="start" style="ellipse;whiteSpace=wrap;html=1;fontSize=16;" vertex="1" parent="1">
          <mxGeometry x="268" y="-44" width="120" height="50" as="geometry" />
        </mxCell>
        <mxCell id="Vt0k-fAMAYBKt453Sh5H-5" value="" style="edgeStyle=none;curved=1;rounded=0;orthogonalLoop=1;jettySize=auto;html=1;fontSize=12;startSize=8;endSize=8;" edge="1" parent="1" source="Vt0k-fAMAYBKt453Sh5H-2" target="Vt0k-fAMAYBKt453Sh5H-4">
          <mxGeometry relative="1" as="geometry" />
        </mxCell>
        <mxCell id="Vt0k-fAMAYBKt453Sh5H-2" value="read radius" style="shape=parallelogram;perimeter=parallelogramPerimeter;whiteSpace=wrap;html=1;fixedSize=1;fontSize=16;" vertex="1" parent="1">
          <mxGeometry x="271" y="29" width="120" height="60" as="geometry" />
        </mxCell>
        <mxCell id="Vt0k-fAMAYBKt453Sh5H-7" value="" style="edgeStyle=none;curved=1;rounded=0;orthogonalLoop=1;jettySize=auto;html=1;fontSize=12;startSize=8;endSize=8;" edge="1" parent="1" source="Vt0k-fAMAYBKt453Sh5H-4" target="Vt0k-fAMAYBKt453Sh5H-6">
          <mxGeometry relative="1" as="geometry" />
        </mxCell>
        <mxCell id="Vt0k-fAMAYBKt453Sh5H-4" value="let pi=3.14" style="whiteSpace=wrap;html=1;fontSize=16;" vertex="1" parent="1">
          <mxGeometry x="273" y="123" width="120" height="60" as="geometry" />
        </mxCell>
        <mxCell id="Vt0k-fAMAYBKt453Sh5H-9" value="" style="edgeStyle=none;curved=1;rounded=0;orthogonalLoop=1;jettySize=auto;html=1;fontSize=12;startSize=8;endSize=8;" edge="1" parent="1" source="Vt0k-fAMAYBKt453Sh5H-6" target="Vt0k-fAMAYBKt453Sh5H-8">
          <mxGeometry relative="1" as="geometry" />
        </mxCell>
        <mxCell id="Vt0k-fAMAYBKt453Sh5H-6" value="cf = 2*pi*radius" style="whiteSpace=wrap;html=1;fontSize=16;" vertex="1" parent="1">
          <mxGeometry x="227" y="217" width="224" height="60" as="geometry" />
        </mxCell>
        <mxCell id="Vt0k-fAMAYBKt453Sh5H-12" value="" style="edgeStyle=none;curved=1;rounded=0;orthogonalLoop=1;jettySize=auto;html=1;fontSize=12;startSize=8;endSize=8;" edge="1" parent="1" source="Vt0k-fAMAYBKt453Sh5H-8" target="Vt0k-fAMAYBKt453Sh5H-11">
          <mxGeometry relative="1" as="geometry" />
        </mxCell>
        <mxCell id="Vt0k-fAMAYBKt453Sh5H-8" value="print cf" style="whiteSpace=wrap;html=1;fontSize=16;" vertex="1" parent="1">
          <mxGeometry x="279" y="315" width="120" height="60" as="geometry" />
        </mxCell>
        <mxCell id="Vt0k-fAMAYBKt453Sh5H-11" value="" style="ellipse;whiteSpace=wrap;html=1;fontSize=16;" vertex="1" parent="1">
          <mxGeometry x="305" y="407" width="80" height="44" as="geometry" />
        </mxCell>
      </root>
    </mxGraphModel>
  </diagram>
</mxfile>
